<?xml version="1.0" encoding="utf-8"?>
<!-- Generator: Adobe Illustrator 25.2.0, SVG Export Plug-In . SVG Version: 6.00 Build 0)  -->
<svg version="1.1" id="Layer_1" xmlns="http://www.w3.org/2000/svg" xmlns:xlink="http://www.w3.org/1999/xlink" x="0px" y="0px"
	 viewBox="0 0 135.21 54" style="enable-background:new 0 0 135.21 54;" xml:space="preserve">
<style type="text/css">
	.st0{fill:#F7F8F8;}
	.st1{fill:none;stroke:#F7F8F8;stroke-miterlimit:10;}
</style>
<g>
	<g>
		<g>
			<path class="st0" d="M67.01,23.1l-2,5.89c-0.15,0.43-0.55,0.72-1.01,0.72l0,0c-0.46,0-0.86-0.29-1.01-0.72l-2-5.89h0.63
				c0.47,0,0.88,0.3,1.02,0.75l1.01,3.19c0.02,0.07,0.06,0.19,0.1,0.37c0.05,0.18,0.1,0.38,0.15,0.58c0.05,0.2,0.08,0.37,0.1,0.5
				c0.02-0.13,0.05-0.3,0.1-0.5c0.05-0.2,0.09-0.39,0.14-0.58s0.08-0.31,0.1-0.38l1.02-3.19c0.14-0.44,0.55-0.74,1.02-0.74H67.01z"
				/>
			<path class="st0" d="M75.7,26.39c0,0.51-0.06,0.97-0.19,1.39c-0.13,0.42-0.32,0.78-0.58,1.08c-0.26,0.3-0.58,0.53-0.98,0.69
				s-0.86,0.24-1.4,0.24c-0.54,0-1.01-0.08-1.4-0.24s-0.72-0.39-0.98-0.69c-0.26-0.3-0.45-0.66-0.58-1.08
				c-0.13-0.42-0.19-0.88-0.19-1.4c0-0.68,0.11-1.28,0.34-1.79c0.22-0.51,0.57-0.9,1.04-1.18c0.47-0.28,1.06-0.42,1.78-0.42
				c0.72,0,1.31,0.14,1.77,0.42c0.46,0.28,0.81,0.67,1.03,1.18C75.58,25.11,75.7,25.71,75.7,26.39z M70.87,26.39
				c0,0.46,0.06,0.86,0.17,1.19c0.12,0.33,0.3,0.59,0.54,0.77s0.57,0.27,0.96,0.27c0.4,0,0.72-0.09,0.97-0.27
				c0.25-0.18,0.43-0.44,0.54-0.77c0.11-0.33,0.17-0.73,0.17-1.19c0-0.69-0.13-1.24-0.39-1.64s-0.69-0.6-1.28-0.6
				c-0.4,0-0.72,0.09-0.97,0.27c-0.25,0.18-0.43,0.44-0.55,0.77C70.93,25.53,70.87,25.93,70.87,26.39z"/>
			<path class="st0" d="M83.72,29.71h-0.1c-0.38,0-0.73-0.2-0.92-0.54l-2.57-4.47h-0.04c0.01,0.21,0.02,0.42,0.03,0.63
				c0.01,0.21,0.02,0.42,0.03,0.63c0.01,0.21,0.02,0.42,0.03,0.63v3.11h-1.25v-5.54c0-0.59,0.48-1.07,1.07-1.07h0.09
				c0.38,0,0.73,0.2,0.92,0.53l2.56,4.42h0.03c-0.01-0.21-0.01-0.41-0.02-0.61c-0.01-0.2-0.02-0.4-0.02-0.61
				c-0.01-0.2-0.01-0.4-0.02-0.61V23.1h1.26v5.54C84.78,29.23,84.31,29.71,83.72,29.71z"/>
			<path class="st0" d="M96.46,27.87c0,0.39-0.09,0.73-0.28,1.02c-0.19,0.29-0.47,0.51-0.83,0.67s-0.8,0.23-1.32,0.23
				c-0.23,0-0.45-0.01-0.67-0.04c-0.22-0.03-0.43-0.07-0.63-0.13c-0.2-0.06-0.39-0.13-0.57-0.22v-1.3c0.31,0.14,0.64,0.26,0.98,0.38
				c0.34,0.11,0.67,0.17,1,0.17c0.23,0,0.41-0.03,0.55-0.09s0.24-0.14,0.31-0.25c0.06-0.11,0.1-0.23,0.1-0.36
				c0-0.17-0.06-0.31-0.17-0.43s-0.26-0.23-0.46-0.33s-0.41-0.21-0.66-0.33c-0.15-0.07-0.32-0.16-0.5-0.26
				c-0.18-0.1-0.35-0.23-0.52-0.38c-0.16-0.15-0.3-0.33-0.4-0.55s-0.16-0.47-0.16-0.78c0-0.39,0.09-0.73,0.27-1.01
				c0.18-0.28,0.44-0.5,0.78-0.64c0.34-0.15,0.73-0.22,1.19-0.22c0.34,0,0.67,0.04,0.98,0.12c0.31,0.08,0.64,0.2,0.98,0.35
				l-0.45,1.09c-0.3-0.12-0.58-0.22-0.82-0.29s-0.49-0.1-0.74-0.1c-0.17,0-0.32,0.03-0.45,0.08c-0.12,0.06-0.22,0.13-0.28,0.24
				c-0.06,0.1-0.09,0.22-0.09,0.35c0,0.16,0.05,0.29,0.14,0.4c0.09,0.11,0.23,0.21,0.42,0.31c0.19,0.1,0.42,0.22,0.69,0.35
				c0.34,0.16,0.63,0.33,0.87,0.5c0.24,0.17,0.42,0.38,0.55,0.61C96.4,27.24,96.46,27.53,96.46,27.87z"/>
			<path class="st0" d="M102.06,29.71h-1.4v-4.38c0-0.59-0.48-1.07-1.07-1.07h-0.73V23.1h4.99v1.17h-0.73
				c-0.59,0-1.07,0.48-1.07,1.07V29.71z"/>
			<path class="st0" d="M112.11,23.1v4.28c0,0.46-0.1,0.87-0.3,1.23c-0.2,0.37-0.5,0.66-0.91,0.87c-0.41,0.21-0.92,0.32-1.53,0.32
				c-0.87,0-1.54-0.22-2-0.67c-0.46-0.45-0.69-1.04-0.69-1.77V23.1h1.4v4.05c0,0.55,0.11,0.93,0.33,1.15
				c0.22,0.22,0.55,0.33,0.99,0.33c0.31,0,0.56-0.05,0.75-0.16s0.33-0.27,0.42-0.49c0.09-0.22,0.14-0.5,0.14-0.84V23.1H112.11z"/>
			<path class="st0" d="M121.07,26.34c0,0.74-0.14,1.37-0.43,1.87c-0.29,0.5-0.7,0.88-1.24,1.13c-0.54,0.25-1.19,0.38-1.95,0.38
				h-0.81c-0.59,0-1.07-0.48-1.07-1.07v-4.48c0-0.59,0.48-1.07,1.07-1.07h1.01c0.69,0,1.29,0.12,1.8,0.37
				c0.51,0.25,0.9,0.61,1.19,1.09S121.07,25.63,121.07,26.34z M119.61,26.38c0-0.49-0.07-0.89-0.21-1.21
				c-0.14-0.31-0.35-0.55-0.63-0.7c-0.28-0.15-0.62-0.23-1.03-0.23h-0.75v4.3h0.6c0.68,0,1.19-0.18,1.53-0.55
				C119.45,27.64,119.61,27.1,119.61,26.38z"/>
			<path class="st0" d="M124.29,29.71V23.1h1.4v6.61H124.29z"/>
			<path class="st0" d="M135.21,26.39c0,0.51-0.06,0.97-0.19,1.39c-0.13,0.42-0.32,0.78-0.58,1.08c-0.26,0.3-0.58,0.53-0.98,0.69
				s-0.86,0.24-1.4,0.24c-0.54,0-1.01-0.08-1.4-0.24s-0.72-0.39-0.98-0.69c-0.26-0.3-0.45-0.66-0.58-1.08
				c-0.13-0.42-0.19-0.88-0.19-1.4c0-0.68,0.11-1.28,0.34-1.79c0.22-0.51,0.57-0.9,1.04-1.18c0.47-0.28,1.06-0.42,1.78-0.42
				c0.72,0,1.31,0.14,1.77,0.42c0.46,0.28,0.81,0.67,1.03,1.18C135.1,25.11,135.21,25.71,135.21,26.39z M130.39,26.39
				c0,0.46,0.06,0.86,0.17,1.19c0.12,0.33,0.3,0.59,0.54,0.77s0.57,0.27,0.96,0.27c0.4,0,0.72-0.09,0.97-0.27
				c0.25-0.18,0.43-0.44,0.54-0.77c0.11-0.33,0.17-0.73,0.17-1.19c0-0.69-0.13-1.24-0.39-1.64s-0.69-0.6-1.28-0.6
				c-0.4,0-0.72,0.09-0.97,0.27c-0.25,0.18-0.43,0.44-0.55,0.77C130.44,25.53,130.39,25.93,130.39,26.39z"/>
		</g>
	</g>
	<g>
		<circle class="st1" cx="27" cy="27" r="26.5"/>
		<path class="st0" d="M17.39,13.91l8.66,15.07c0.41,0.71,1.44,0.71,1.85,0l8.7-15.07c0.41-0.71-0.1-1.6-0.92-1.6h-3.91
			c-0.38,0-0.72,0.2-0.92,0.52l-2.93,4.91c-0.42,0.7-1.43,0.69-1.84-0.01l-2.84-4.88c-0.19-0.33-0.54-0.53-0.92-0.53h-4.01
			C17.5,12.31,16.98,13.2,17.39,13.91z"/>
		<path class="st0" d="M38.14,14.23h4.5c0.82,0,1.33,0.89,0.92,1.6L27.95,42.91c-0.41,0.71-1.44,0.71-1.85,0L10.44,15.83
			c-0.41-0.71,0.1-1.6,0.92-1.6h4.58c0.38,0,0.73,0.2,0.92,0.53l9.2,15.9c0.41,0.71,1.43,0.71,1.84,0l9.31-15.91
			C37.41,14.43,37.76,14.23,38.14,14.23z"/>
	</g>
</g>
</svg>
